# xmcd
# 
# Track frame offsets:
#     150
#     12692
#     26027
#     46762
#     67325
#     85037
#     100407
#     114715
#     139835
#     153352
#     174932
#     196302
# 
# Disc length: 2863
# 
# Revision: 1
# Processed by: cddbd v1.5.2PL0 Copyright (c) Steve Scherf et al.
# Submitted via: fre:ac v1.0.31
# 
DISCID=a20b2d0c
DTITLE=Various Artist - Masters of Jazz Piano
DYEAR=1996
DGENRE=Jazz
TTITLE0=Wynton Kelly Trio - Escapade
TTITLE1=Oscar Peterson - Fascinatin' Rhythm
TTITLE2=Hank Jones and Tommy Flanagan - Rockin' In Rhythm
TTITLE3=Errol Garner - Part Time Blues
TTITLE4=George Shearing - Love Walked In
TTITLE5=Oscar Peterson - All of Me
TTITLE6=Teddy Wilson - As Time Goes By
TTITLE7=Bill Evans - Someday My Prince Will Come
TTITLE8=Bud Powell - Celia
TTITLE9=Oscar Peterson - Night Train
TTITLE10=George Shesring - Too CLose For Comfort
TTITLE11=Ray Bryant - It Don't Mean A Thing
EXTD=YEAR: 1996
EXTT0=
EXTT1=
EXTT2=
EXTT3=
EXTT4=
EXTT5=
EXTT6=
EXTT7=
EXTT8=
EXTT9=
EXTT10=
EXTT11=
PLAYORDER=
